<?xml version="1.0" encoding="UTF-8"?>
<svg width="18px" height="10px" viewBox="0 0 18 10" version="1.1" xmlns="http://www.w3.org/2000/svg" xmlns:xlink="http://www.w3.org/1999/xlink">
    <!-- Generator: Sketch 51.2 (57519) - http://www.bohemiancoding.com/sketch -->
    <title>Shape</title>
    <desc>Created with Sketch.</desc>
    <defs></defs>
    <g id="Page-1" stroke="none" stroke-width="1" fill="none" fill-rule="evenodd">
        <g id="market-dApp---Exchange-v6" transform="translate(-1214.000000, -93.000000)" fill="#CCCCCC" fill-rule="nonzero">
            <g id="Group-37" transform="translate(15.000000, 75.000000)">
                <g id="Group-12" transform="translate(11.000000, 9.000000)">
                    <g id="Group-14" transform="translate(849.599734, 4.022222)">
                        <g id="Group-40" transform="translate(337.434183, 1.777778)">
                            <g id="Group-43" transform="translate(0.628529, -0.222222)">
                                <path d="M17.6285289,5.32871266 C17.6285289,6.18172684 16.9330743,6.87964754 16.0830743,6.87964754 C15.9439834,6.87964754 15.8126198,6.86413819 15.6889834,6.82536482 L12.9380743,9.57827423 C12.9767107,9.70234902 12.9921652,9.84193316 12.9921652,9.9815173 C12.9921652,10.8345315 12.2967107,11.5324522 11.4467107,11.5324522 C10.5967107,11.5324522 9.90125614,10.8345315 9.90125614,9.9815173 C9.90125614,9.84193316 9.91671068,9.70234902 9.95534705,9.57827423 L7.9848925,7.60083226 C7.86125614,7.63960563 7.72216523,7.65511498 7.58307432,7.65511498 C7.44398341,7.65511498 7.3048925,7.63960563 7.18125614,7.60083226 L3.66534705,11.1369638 C3.70398341,11.2610386 3.71943796,11.392868 3.71943796,11.5324522 C3.71943796,12.3854664 3.02398341,13.0833871 2.17398341,13.0833871 C1.32398341,13.0833871 0.628528867,12.3854664 0.628528867,11.5324522 C0.628528867,10.679438 1.32398341,9.9815173 2.17398341,9.9815173 C2.31307432,9.9815173 2.44443796,9.99702665 2.56807432,10.0358 L6.09171068,6.50742317 C6.05307432,6.38334838 6.03761978,6.24376424 6.03761978,6.1041801 C6.03761978,5.25116591 6.73307432,4.55324522 7.58307432,4.55324522 C8.43307432,4.55324522 9.12852887,5.25116591 9.12852887,6.1041801 C9.12852887,6.24376424 9.11307432,6.38334838 9.07443796,6.50742317 L11.0448925,8.48486514 C11.1685289,8.44609177 11.3076198,8.43058242 11.4467107,8.43058242 C11.5858016,8.43058242 11.7248925,8.44609177 11.8485289,8.48486514 L14.5917107,5.72420105 C14.5530743,5.60012626 14.5376198,5.4682968 14.5376198,5.32871266 C14.5376198,4.47569847 15.2330743,3.77777778 16.0830743,3.77777778 C16.9330743,3.77777778 17.6285289,4.47569847 17.6285289,5.32871266 Z" id="Shape"></path>
                            </g>
                        </g>
                    </g>
                </g>
            </g>
        </g>
    </g>
</svg>