<?xml version="1.0" encoding="UTF-8"?>
<svg width="16px" height="16px" viewBox="0 0 16 16" version="1.1" xmlns="http://www.w3.org/2000/svg" xmlns:xlink="http://www.w3.org/1999/xlink">
    <!-- Generator: Sketch 51.2 (57519) - http://www.bohemiancoding.com/sketch -->
    <title>coins</title>
    <desc>Created with Sketch.</desc>
    <defs></defs>
    <g id="Page-1" stroke="none" stroke-width="1" fill="none" fill-rule="evenodd">
        <g id="market-dApp---Exchange-v6" transform="translate(-1090.000000, -90.000000)" fill="#CCCCCC" fill-rule="nonzero">
            <g id="Group-37" transform="translate(15.000000, 75.000000)">
                <g id="Group-12" transform="translate(11.000000, 9.000000)">
                    <g id="Group-14" transform="translate(849.599734, 4.022222)">
                        <g id="Group-19" transform="translate(214.434183, 0.777778)">
                            <g id="coins" transform="translate(0.367045, 1.777778)">
                                <path d="M7.47349823,0 C3.34582093,0 0,3.35768555 0,7.5 C0,11.6423145 3.34582093,15 7.47349823,15 C11.6011755,15 14.9469965,11.6423145 14.9469965,7.5 C14.9469965,3.35768555 11.6011755,0 7.47349823,0 Z M7.47349823,13.828125 C3.99081886,13.828125 1.1677341,10.9950293 1.1677341,7.5 C1.1677341,4.0049707 3.99081886,1.171875 7.47349823,1.171875 C10.9561776,1.171875 13.7792624,4.0049707 13.7792624,7.5 C13.7792624,10.9950293 10.9561776,13.828125 7.47349823,13.828125 Z" id="Shape"></path>
                                <g id="Group" transform="translate(3.985866, 3.000000)">
                                    <path d="M3.48763251,7.72308482 C2.17841886,7.72308482 0.809217933,7.46883482 0.00680088339,6.93144643 C0.00680088339,6.94024554 0,6.94904464 0,6.95720089 C0,7.09216071 0,7.58876786 0,7.72308482 C0,8.42870089 1.56123869,9 3.48763251,9 C5.41402633,9 6.97526502,8.42870089 6.97526502,7.72308482 C6.97526502,7.58872768 6.97526502,7.09216071 6.97526502,6.95720089 C6.97526502,6.94904464 6.96846413,6.94024554 6.96846413,6.93144643 C6.16604708,7.46883482 4.79619223,7.72308482 3.48763251,7.72308482 Z" id="Shape"></path>
                                    <path d="M3.48763251,5.80769196 C2.17841886,5.80769196 0.809217933,5.55408482 0.00680088339,5.01665625 C0.00680088339,5.02545536 0,5.03361161 0,5.04241071 C0,5.17737054 0,5.67333482 0,5.80769196 C0,6.51330804 1.56123869,7.08525 3.48763251,7.08525 C5.41402633,7.08525 6.97526502,6.51334821 6.97526502,5.80769196 C6.97526502,5.67333482 6.97526502,5.17737054 6.97526502,5.04241071 C6.97526502,5.03361161 6.96846413,5.02545536 6.96846413,5.01665625 C6.16604708,5.55404464 4.79619223,5.80769196 3.48763251,5.80769196 Z" id="Shape"></path>
                                    <path d="M0,3.16028571 C0,3.32224554 0,3.76609821 0,3.89354464 C0,4.59916071 1.56123869,5.17045982 3.48763251,5.17045982 C5.41402633,5.17045982 6.97526502,4.59916071 6.97526502,3.89354464 C6.97526502,3.76609821 6.97526502,3.32224554 6.97526502,3.16028571 C6.17419943,3.70145089 4.8002466,3.95758929 3.48763251,3.95758929 C2.17501842,3.95758929 0.801065592,3.70145089 0,3.16028571 Z" id="Shape"></path>
                                    <path d="M3.48763251,0 C1.56123869,0 0,0.571299107 0,1.27691518 C0,1.41127232 0,1.90783929 0,2.04279911 C0,2.74716964 1.56123869,3.31911161 3.48763251,3.31911161 C5.41402633,3.31911161 6.97526502,2.74720982 6.97526502,2.04279911 C6.97526502,1.90783929 6.97526502,1.41123214 6.97526502,1.27691518 C6.97526502,0.571299107 5.41402633,0 3.48763251,0 Z" id="Shape"></path>
                                </g>
                            </g>
                        </g>
                    </g>
                </g>
            </g>
        </g>
    </g>
</svg>