<?xml version="1.0" encoding="UTF-8"?>
<svg width="15px" height="25px" viewBox="0 0 15 25" version="1.1" xmlns="http://www.w3.org/2000/svg" xmlns:xlink="http://www.w3.org/1999/xlink">
    <!-- Generator: Sketch 51.2 (57519) - http://www.bohemiancoding.com/sketch -->
    <title>Asset 1</title>
    <desc>Created with Sketch.</desc>
    <defs></defs>
    <g id="Page-1" stroke="none" stroke-width="1" fill="none" fill-rule="evenodd">
        <g id="market-dApp---Exchange-v6" transform="translate(-26.000000, -84.000000)" fill="#50E3C2" fill-rule="nonzero">
            <g id="Group-37" transform="translate(15.000000, 75.000000)">
                <g id="Group-12" transform="translate(11.000000, 9.000000)">
                    <g id="Group-15">
                        <g id="Asset-1" transform="translate(0.000000, 0.063996)">
                            <path d="M1.70127763,16.2306116 L1.70127763,1.87986583 C1.70127763,1.23981188 2.14922979,0.460822289 2.70064597,0.139014088 C2.98164483,-0.0248587227 3.23560196,-0.0391085323 3.41783971,0.0713274923 L14.9576047,6.80080009 C14.7753669,6.69036406 14.5214098,6.70342639 14.2404109,6.8672992 C13.6889948,7.1891074 13.2410426,7.96928448 13.2410426,8.60933842 L13.2410426,22.9600842 C13.2410426,23.6001381 12.7930905,24.3850652 12.2416743,24.7009359 C11.9677298,24.8612463 11.7196513,24.8778711 11.5362378,24.7769349 L0,18.0498373 C0.179886301,18.1519609 0.427964794,18.1341487 0.705436474,17.9750258 C1.2545012,17.6508426 1.70127763,16.8706656 1.70127763,16.2306116 Z M3.58326358,8.44334005 L10.7552011,12.5995345 C10.9241649,12.6974504 11.1397278,12.638485 11.2366742,12.4678316 C11.3336207,12.2971782 11.2752391,12.0794598 11.1062753,11.981544 L3.93433777,7.82534949 C3.76537394,7.72743361 3.54981106,7.78639901 3.4528646,7.95705239 C3.35591814,8.12770578 3.41429975,8.34542418 3.58326358,8.44334005 Z M3.58326358,10.8183083 L10.7552011,14.9745028 C10.9241649,15.0724187 11.1397278,15.0134533 11.2366742,14.8427999 C11.3336207,14.6721465 11.2752391,14.4544281 11.1062753,14.3565122 L3.93433777,10.2003178 C3.76537394,10.1024019 3.54981106,10.1613673 3.4528646,10.3320207 C3.35591814,10.502674 3.41429975,10.7203924 3.58326358,10.8183083 Z M3.58326358,13.1932766 L10.7552011,17.3494711 C10.9241649,17.4473869 11.1397278,17.3884215 11.2366742,17.2177682 C11.3336207,17.0471148 11.2752391,16.8293964 11.1062753,16.7314805 L3.93433777,12.575286 C3.76537394,12.4773702 3.54981106,12.5363356 3.4528646,12.7069889 C3.35591814,12.8776423 3.41429975,13.0953607 3.58326358,13.1932766 Z M7.69193841,17.9717733 L10.7568837,19.7254083 C10.9263774,19.8223855 11.1416164,19.7622254 11.2376336,19.5910369 C11.3336507,19.4198484 11.2740862,19.2024571 11.1045926,19.1054798 L8.03964723,17.3518448 C7.87015357,17.2548676 7.65491454,17.3150277 7.5588974,17.4862162 C7.46288026,17.6574047 7.52244475,17.874796 7.69193841,17.9717733 Z M3.58400286,6.068799 L6.58268626,7.7968519 C6.7518837,7.8943554 6.96730497,7.83486443 7.06384314,7.6639751 C7.16038131,7.49308577 7.10147933,7.27551039 6.93228189,7.17800689 L3.93359849,5.449954 C3.76440105,5.3524505 3.54897978,5.41194147 3.45244161,5.5828308 C3.35590344,5.75372012 3.41480542,5.9712955 3.58400286,6.068799 Z" id="Combined-Shape"></path>
                        </g>
                    </g>
                </g>
            </g>
        </g>
    </g>
</svg>