<?xml version="1.0" encoding="UTF-8"?>
<svg width="15px" height="16px" viewBox="0 0 15 16" version="1.1" xmlns="http://www.w3.org/2000/svg" xmlns:xlink="http://www.w3.org/1999/xlink">
    <!-- Generator: Sketch 51.2 (57519) - http://www.bohemiancoding.com/sketch -->
    <title>Shape</title>
    <desc>Created with Sketch.</desc>
    <defs></defs>
    <g id="Page-1" stroke="none" stroke-width="1" fill="none" fill-rule="evenodd">
        <g id="market-dApp---Exchange-v6" transform="translate(-876.000000, -91.000000)" fill="#CCCCCC" fill-rule="nonzero">
            <g id="Group-37" transform="translate(15.000000, 75.000000)">
                <g id="Group-12" transform="translate(11.000000, 9.000000)">
                    <g id="Group-14" transform="translate(849.599734, 4.022222)">
                        <g id="Group-21" transform="translate(0.434183, 0.777778)">
                            <path d="M10.6465637,6.73374892 C9.77216442,5.85624892 8.62871919,5.41374892 7.47780046,5.41374892 L7.47780046,9.91374892 L4.30903721,13.0937489 C6.0578358,14.8487489 8.89776512,14.8487489 10.6540372,13.0937489 C12.4028358,11.3387489 12.4028358,8.48874892 10.6465637,6.73374892 Z M7.47780046,2.41374892 C3.35242944,2.41374892 0.00430222673,5.77374892 0.00430222673,9.91374892 C0.00430222673,14.0537489 3.35242944,17.4137489 7.47780046,17.4137489 C11.6031715,17.4137489 14.9512987,14.0537489 14.9512987,9.91374892 C14.9512987,5.77374892 11.6031715,2.41374892 7.47780046,2.41374892 Z M7.47780046,15.9137489 C4.17451424,15.9137489 1.49900187,13.2287489 1.49900187,9.91374892 C1.49900187,6.59874892 4.17451424,3.91374892 7.47780046,3.91374892 C10.7810867,3.91374892 13.456599,6.59874892 13.456599,9.91374892 C13.456599,13.2287489 10.7810867,15.9137489 7.47780046,15.9137489 Z" id="Shape"></path>
                        </g>
                    </g>
                </g>
            </g>
        </g>
    </g>
</svg>